<svg width="237" height="30" viewBox="0 0 237 30" fill="none" xmlns="http://www.w3.org/2000/svg">
<path d="M18.1263 25.3138H3.6099V0.665124H0V28.5221H18.1263V25.3138Z" fill="currentColor"/>
<path d="M29.3655 0C21.4161 0 16.3084 5.59486 16.3084 14.2806C16.3084 22.3795 20.648 29.1872 29.4039 29.1872C38.083 29.1872 42.4994 22.536 42.4994 14.3588C42.4994 6.06436 37.8526 0 29.3655 0ZM29.3655 3.20824C35.1644 3.20824 38.8895 7.66848 38.8895 14.5545C38.8895 21.4796 35.1644 26.0181 29.4423 26.0181C23.6434 26.0181 19.9183 21.5187 19.9183 14.5545C19.9183 8.60748 22.9138 3.20824 29.3655 3.20824Z" fill="currentColor"/>
<path d="M55.0866 0C47.1372 0 42.0296 5.59486 42.0296 14.2806C42.0296 22.3795 46.3691 29.1872 55.125 29.1872C63.8041 29.1872 68.2205 22.536 68.2205 14.3588C68.2205 6.06436 63.5737 0 55.0866 0ZM55.0866 3.20824C60.8855 3.20824 64.6106 7.66848 64.6106 14.5545C64.6106 21.4796 60.8855 26.0181 55.1634 26.0181C49.3646 26.0181 45.6395 21.5187 45.6395 14.5545C45.6395 8.60748 48.6349 3.20824 55.0866 3.20824Z" fill="currentColor"/>
<path d="M91.4838 0.665124H86.7602L72.8967 14.4762V0.665124H69.2868V28.5221H72.8967V18.7408L77.4283 14.3588L87.3363 28.5221H91.9447L79.9629 11.8549L91.4838 0.665124Z" fill="currentColor"/>
<path d="M110.8 8.84223C110.57 2.85612 106.576 0.117376 100.777 0.117376C95.8615 0.117376 90.8691 2.3475 90.8691 8.05973C90.8691 13.9285 95.9767 14.6718 100.393 15.6891C104.886 16.7455 108.343 17.4497 108.343 21.0492C108.343 25.0008 104.733 26.1354 101.545 26.1354C97.1672 26.1354 93.5573 24.3748 93.4037 19.3277H89.909C89.909 26.0572 94.7094 29.1481 101.238 29.1481C106.461 29.1481 111.876 26.8788 111.876 20.6971C111.876 14.8283 106.192 13.4198 101.737 12.4808C97.5128 11.581 94.3254 10.9159 94.3254 7.78586C94.3254 4.85149 96.5911 3.16912 100.508 3.16912C104.541 3.16912 106.883 4.81237 107.306 8.84223H110.8Z" fill="currentColor"/>
<path d="M136.624 13.772H124.642V16.7846H133.398C133.245 22.1447 130.556 26.1354 124.796 26.1354C118.882 26.1354 115.157 21.6752 115.157 14.711C115.157 7.62936 118.882 3.16912 124.834 3.16912C129.059 3.16912 132.208 5.59486 132.745 9.23348H136.278C135.779 3.20824 130.326 0.0782488 124.834 0.0782488C116.309 0.0782488 111.547 6.65124 111.547 14.8283C111.547 23.3967 116.808 29.1872 124.565 29.1872C128.367 29.1872 131.094 27.9352 133.398 25.0399L134.32 28.5221H136.624V13.772Z" fill="currentColor"/>
<path d="M138.575 0.665124V28.5221H142.184V16.4716H149.366C154.32 16.4716 155.51 17.6845 155.741 22.3795C155.818 23.9836 155.779 27.1136 156.662 28.5221H160.81C159.351 27.0353 159.351 24.2183 159.235 21.9882C159.082 18.6235 158.928 15.963 155.088 15.1413C157.891 14.3197 159.773 11.6201 159.773 8.37273C159.773 2.38662 155.741 0.665124 150.595 0.665124H138.575ZM142.184 3.79512H149.942C153.168 3.79512 156.163 4.46024 156.163 8.60748C156.163 13.1851 152.515 13.5372 148.982 13.5372H142.184V3.79512Z" fill="currentColor"/>
<path d="M180.341 0.665124H161.408V28.5221H180.533V25.3138H165.018V15.6891H179.342V12.5982H165.018V3.87337H180.341V0.665124Z" fill="currentColor"/>
<path d="M192.911 0.665124H188.84L178.087 28.5221H181.928L185.038 19.9928H196.521L199.555 28.5221H203.587L192.911 0.665124ZM195.446 17.0585H186.075L190.799 4.18637L195.446 17.0585Z" fill="currentColor"/>
<path d="M218.32 0.665124H196.354V3.87337H205.532V28.5221H209.142V3.87337H218.32V0.665124Z" fill="currentColor"/>
<path d="M232.016 19.0059H230.384C230.124 20.983 228.84 22.0533 226.739 22.0533C224.17 22.0533 222.59 20.4032 222.59 17.7126C222.59 15.4827 223.823 13.3867 226.757 13.3867C228.597 13.3867 229.916 14.2192 230.28 15.6017H231.912C231.669 13.3421 229.221 12.1826 226.791 12.1826C222.99 12.1826 220.941 14.6949 220.941 17.7274C220.941 21.1168 223.146 23.2574 226.67 23.2574C229.725 23.2574 231.738 21.6965 232.016 19.0059Z" fill="currentColor"/>
</svg>
